HIERARCHY
ROOT joint_Root
{
	OFFSET 0.0 0.0 0.0
	CHANNELS 6 Xposition Yposition Zposition Zrotation Xrotation Yrotation 
	JOINT Hips
	{
		OFFSET -0.726466 93.3139 -2.00062
		CHANNELS 6 Xposition Yposition Zposition Zrotation Xrotation Yrotation 
		JOINT Spine
		{
			OFFSET 15.7357 0.0 0.0
			CHANNELS 6 Xposition Yposition Zposition Zrotation Xrotation Yrotation 
			JOINT Chest
			{
				OFFSET 8.98455 -0.406207 0.0
				CHANNELS 6 Xposition Yposition Zposition Zrotation Xrotation Yrotation 
				JOINT Neck
				{
					OFFSET 16.3773 0.0 0.0
					CHANNELS 6 Xposition Yposition Zposition Zrotation Xrotation Yrotation 
					JOINT Head
					{
						OFFSET 6.45672 0.0 0.0
						CHANNELS 6 Xposition Yposition Zposition Zrotation Xrotation Yrotation 
						End Site
						{
							OFFSET 0.0 0.0 0.0
						}
					}
				}
				JOINT Shoulder_L
				{
					OFFSET 12.9942 -0.242716 4.98039
					CHANNELS 6 Xposition Yposition Zposition Zrotation Xrotation Yrotation 
					JOINT UpperArm_L
					{
						OFFSET 5.34809 0.0 0.0
						CHANNELS 6 Xposition Yposition Zposition Zrotation Xrotation Yrotation 
						JOINT LowerArm_L
						{
							OFFSET 24.3286 1.87007e-05 0.0
							CHANNELS 6 Xposition Yposition Zposition Zrotation Xrotation Yrotation 
							JOINT Hand_L
							{
								OFFSET 22.2916 0.0 0.0
								CHANNELS 6 Xposition Yposition Zposition Zrotation Xrotation Yrotation 
								End Site
								{
									OFFSET 0.0 0.0 0.0
								}
							}
						}
					}
				}
				JOINT Shoulder_R
				{
					OFFSET 12.9945 -0.242716 -4.98039
					CHANNELS 6 Xposition Yposition Zposition Zrotation Xrotation Yrotation 
					JOINT UpperArm_R
					{
						OFFSET -5.34813 0.0 0.0
						CHANNELS 6 Xposition Yposition Zposition Zrotation Xrotation Yrotation 
						JOINT LowerArm_R
						{
							OFFSET -24.3289 0.000322201 0.0
							CHANNELS 6 Xposition Yposition Zposition Zrotation Xrotation Yrotation 
							JOINT Hand_R
							{
								OFFSET -22.2915 -0.000108084 0.0
								CHANNELS 6 Xposition Yposition Zposition Zrotation Xrotation Yrotation 
								End Site
								{
									OFFSET 0.0 0.0 0.0
								}
							}
						}
					}
				}
			}
		}
		JOINT UpperLeg_L
		{
			OFFSET -2.19248 -6.46944 0.0
			CHANNELS 6 Xposition Yposition Zposition Zrotation Xrotation Yrotation 
			JOINT LowerLeg_L
			{
				OFFSET 39.0811 0.0 -1.23785e-05
				CHANNELS 6 Xposition Yposition Zposition Zrotation Xrotation Yrotation 
				JOINT Foot_L
				{
					OFFSET 40.9854 0.0 -1.26872e-05
					CHANNELS 6 Xposition Yposition Zposition Zrotation Xrotation Yrotation 
					JOINT Toes_L
					{
						OFFSET 11.7543 0.0 0.0
						CHANNELS 6 Xposition Yposition Zposition Zrotation Xrotation Yrotation 
						End Site
						{
							OFFSET 0.0 0.0 0.0
						}
					}
				}
			}
		}
		JOINT UpperLeg_R
		{
			OFFSET -2.19251 6.46944 0.0
			CHANNELS 6 Xposition Yposition Zposition Zrotation Xrotation Yrotation 
			JOINT LowerLeg_R
			{
				OFFSET -39.0811 -0.00228153 -0.0401928
				CHANNELS 6 Xposition Yposition Zposition Zrotation Xrotation Yrotation 
				JOINT Foot_R
				{
					OFFSET -40.9854 0.0 0.0
					CHANNELS 6 Xposition Yposition Zposition Zrotation Xrotation Yrotation 
					JOINT Toes_R
					{
						OFFSET -11.7543 0.0 0.0
						CHANNELS 6 Xposition Yposition Zposition Zrotation Xrotation Yrotation 
						End Site
						{
							OFFSET 0.0 0.0 0.0
						}
					}
				}
			}
		}
	}
}
MOTION
Frames:	8
Frame Time:	0.0333333
0.000000 0.000000 0.000000 0.000000 0.000000 -0.000000 -1.138030 92.050200 0.186785 87.811600 -0.723771 2.588320 15.735700 0.000005 -0.000001 79.901000 85.432500 -79.116100 8.984550 -0.406207 -0.000000 1.239790 -1.645780 1.586200 16.377300 -0.000001 -0.000001 3.540600 -1.947930 0.495083 6.456720 -0.000001 -0.000000 -0.765525 -0.832956 -2.433770 12.994200 -0.242716 4.980390 -90.181800 0.480167 -69.258200 5.348090 -0.000007 -0.000001 -67.714900 28.983100 -6.545430 24.328600 0.000019 0.000005 3.173140 4.759320 -33.749700 22.291600 -0.000001 0.000005 2.533420 5.575560 -9.976030 12.994500 -0.242716 -4.980390 87.988400 4.812630 -67.284000 -5.348130 -0.000001 -0.000004 -66.071900 29.518000 -10.002100 -24.328900 0.000322 -0.000009 1.883940 4.052230 -24.973000 -22.291500 -0.000108 -0.000004 10.179100 5.484460 -5.919760 -2.192480 -6.469440 -0.000000 -168.821000 -17.409800 -2.619500 39.081100 -0.000007 -0.000012 -0.174473 0.450580 21.167600 40.985400 -0.000006 -0.000013 -7.454090 -1.856630 -63.651200 11.754300 -0.000000 0.000003 -0.000119 -0.001196 -16.623300 -2.192510 6.469440 -0.000001 174.725000 22.563400 179.229000 -39.081100 -0.002282 -0.040193 0.015549 -0.034024 19.766900 -40.985400 0.000008 0.000006 -1.616610 0.416532 -64.157400 -11.754300 -0.000006 -0.000006 -0.004156 -0.053054 -18.731300
0.000000 0.000000 0.000000 0.000000 0.000000 -0.000000 -1.140040 92.055200 0.171076 87.798900 -0.668786 2.649380 15.735700 0.000005 -0.000001 79.970600 85.394100 -79.203900 8.984550 -0.406207 -0.000000 1.317110 -1.646650 1.551130 16.377300 -0.000001 -0.000001 3.468120 -1.922330 0.420517 6.456720 -0.000001 -0.000000 -1.000620 -0.820719 -2.528600 12.994200 -0.242716 4.980390 -90.149700 0.396029 -69.292300 5.348090 -0.000007 -0.000001 -66.528500 31.122000 -6.746190 24.328600 0.000019 0.000005 3.223060 4.611590 -35.007000 22.291600 -0.000001 0.000005 2.288340 5.579160 -10.167300 12.994500 -0.242716 -4.980390 87.997600 4.772190 -67.205000 -5.348130 -0.000001 -0.000004 -65.265600 29.322900 -10.522900 -24.328900 0.000322 -0.000009 1.969750 4.186150 -25.239000 -22.291500 -0.000108 -0.000004 9.856960 5.487570 -6.040820 -2.192480 -6.469440 -0.000000 -168.785000 -17.363000 -2.561760 39.081100 -0.000007 -0.000012 -0.175306 0.453476 21.135900 40.985400 -0.000006 -0.000013 -7.442940 -1.783130 -63.620700 11.754300 -0.000000 0.000003 -0.000139 -0.001363 -16.629500 -2.192510 6.469440 -0.000001 174.725000 22.587300 179.299000 -39.081100 -0.002282 -0.040193 0.019244 -0.044337 19.754600 -40.985400 0.000008 0.000006 -1.469500 0.403418 -64.158200 -11.754300 -0.000006 -0.000006 -0.003951 -0.050926 -18.644600
0.000000 0.000000 0.000000 0.000000 0.000000 -0.000000 -1.127520 92.047200 0.159638 87.787100 -0.688090 2.646440 15.735700 0.000005 -0.000001 80.031700 85.374200 -79.291200 8.984550 -0.406207 -0.000000 1.357630 -1.642120 1.499160 16.377300 -0.000001 -0.000001 3.330780 -1.846700 0.360319 6.456720 -0.000001 -0.000000 -1.191490 -0.711626 -2.720430 12.994200 -0.242716 4.980390 -90.103000 0.272820 -69.317100 5.348090 -0.000007 -0.000001 -64.993500 33.801700 -6.965670 24.328600 0.000019 0.000005 3.468760 4.627350 -36.918900 22.291600 -0.000001 0.000005 1.971890 5.584750 -10.470700 12.994500 -0.242716 -4.980390 88.026700 4.695650 -67.175200 -5.348130 -0.000001 -0.000004 -64.223500 28.580900 -11.287000 -24.328900 0.000322 -0.000009 2.020310 4.236540 -25.536400 -22.291500 -0.000108 -0.000004 9.756770 5.487600 -6.041920 -2.192480 -6.469440 -0.000000 -168.787000 -17.380200 -2.619000 39.081100 -0.000007 -0.000012 -0.176198 0.453511 21.232400 40.985400 -0.000006 -0.000013 -7.439960 -1.823560 -63.663600 11.754300 -0.000000 0.000003 -0.000122 -0.001218 -16.624100 -2.192510 6.469440 -0.000001 174.718000 22.641300 179.264000 -39.081100 -0.002282 -0.040193 0.017628 -0.039736 19.800700 -40.985400 0.000008 0.000006 -1.532630 0.451445 -64.159000 -11.754300 -0.000006 -0.000006 -0.004108 -0.052556 -18.711000
0.000000 0.000000 0.000000 0.000000 0.000000 -0.000000 -1.096960 92.061800 0.139522 87.800400 -0.731475 2.655490 15.735700 0.000005 -0.000001 80.034300 85.362200 -79.340100 8.984550 -0.406207 -0.000000 1.380660 -1.643130 1.407170 16.377300 -0.000001 -0.000001 3.204880 -1.762240 0.297686 6.456720 -0.000001 -0.000000 -1.430720 -0.584644 -2.880580 12.994200 -0.242716 4.980390 -90.026000 0.069114 -69.390000 5.348090 -0.000007 -0.000001 -63.140900 37.025500 -7.024060 24.328600 0.000019 0.000005 3.590250 4.323840 -39.766500 22.291600 -0.000001 0.000005 1.751180 5.594000 -10.991000 12.994500 -0.242716 -4.980390 88.066000 4.586080 -67.105000 -5.348130 -0.000001 -0.000004 -62.771000 27.373200 -12.376800 -24.328900 0.000322 -0.000009 2.020320 4.172850 -25.875300 -22.291500 -0.000108 -0.000004 9.645490 5.486790 -6.009910 -2.192480 -6.469440 -0.000000 -168.817000 -17.402500 -2.565320 39.081100 -0.000007 -0.000012 -0.175439 0.453779 21.137600 40.985400 -0.000006 -0.000013 -7.415830 -1.823770 -63.615400 11.754300 -0.000000 0.000003 -0.000142 -0.001389 -16.630400 -2.192510 6.469440 -0.000001 174.716000 22.626600 179.268000 -39.081100 -0.002282 -0.040193 0.022596 -0.053675 19.753100 -40.985400 0.000008 0.000006 -1.385050 0.442497 -64.116000 -11.754300 -0.000006 -0.000006 -0.003978 -0.051213 -18.656300
0.000000 0.000000 0.000000 0.000000 0.000000 -0.000000 -1.075050 92.050800 0.154180 87.809800 -0.787886 2.705640 15.735700 0.000005 -0.000001 79.751100 85.334600 -79.117600 8.984550 -0.406207 -0.000000 1.426290 -1.694410 1.286960 16.377300 -0.000001 -0.000001 3.048110 -1.653560 0.227585 6.456720 -0.000001 -0.000000 -1.717870 -0.407549 -2.983120 12.994200 -0.242716 4.980390 -89.908300 -0.244930 -69.468300 5.348090 -0.000007 -0.000001 -61.236200 40.154000 -6.780820 24.328600 0.000019 0.000005 3.732590 3.929170 -43.596000 22.291600 -0.000001 0.000005 1.452350 5.603050 -11.528300 12.994500 -0.242716 -4.980390 88.130700 4.407630 -66.991000 -5.348130 -0.000001 -0.000004 -60.855400 25.729300 -13.972700 -24.328900 0.000322 -0.000009 2.061260 4.193810 -26.215600 -22.291500 -0.000108 -0.000004 9.568010 5.482330 -5.837640 -2.192480 -6.469440 -0.000000 -168.824000 -17.453500 -2.538420 39.081100 -0.000007 -0.000012 -0.175867 0.452671 21.231900 40.985400 -0.000006 -0.000013 -7.405990 -1.846060 -63.678300 11.754300 -0.000000 0.000003 -0.000126 -0.001249 -16.625200 -2.192510 6.469440 -0.000001 174.645000 22.587400 179.314000 -39.081100 -0.002282 -0.040193 0.019608 -0.045263 19.789200 -40.985400 0.000008 0.000006 -1.513710 0.497688 -64.129800 -11.754300 -0.000006 -0.000006 -0.004187 -0.053373 -18.744300
0.000000 0.000000 0.000000 0.000000 0.000000 -0.000000 -1.027810 92.060200 0.143743 87.794500 -0.933127 2.742530 15.735700 0.000005 -0.000001 79.747000 85.318300 -79.177900 8.984550 -0.406207 -0.000000 1.457220 -1.697110 1.158920 16.377300 -0.000001 -0.000001 2.838720 -1.563410 0.225241 6.456720 -0.000001 -0.000000 -2.070800 -0.239202 -3.144950 12.994200 -0.242716 4.980390 -89.736100 -0.708730 -69.577200 5.348090 -0.000007 -0.000001 -59.169200 43.602500 -6.505630 24.328600 0.000019 0.000005 3.163810 2.855020 -47.987200 22.291600 -0.000001 0.000005 1.716570 5.614560 -12.254100 12.994500 -0.242716 -4.980390 88.201000 4.229820 -66.934200 -5.348130 -0.000001 -0.000004 -58.592300 23.265200 -15.779500 -24.328900 0.000322 -0.000009 2.072960 4.127460 -26.709200 -22.291500 -0.000108 -0.000004 9.529200 5.481040 -5.788240 -2.192480 -6.469440 -0.000000 -168.826000 -17.510600 -2.444900 39.081100 -0.000007 -0.000012 -0.174994 0.451117 21.202100 40.985400 -0.000006 -0.000013 -7.385180 -1.903310 -63.698800 11.754300 -0.000000 0.000003 -0.000139 -0.001361 -16.629400 -2.192510 6.469440 -0.000001 174.646000 22.475600 179.336000 -39.081100 -0.002282 -0.040193 0.024092 -0.057858 19.747700 -40.985400 0.000008 0.000006 -1.346400 0.523363 -64.085100 -11.754300 -0.000006 -0.000006 -0.003974 -0.051168 -18.654500
0.000000 0.000000 0.000000 0.000000 0.000000 -0.000000 -0.985203 92.058600 0.121468 87.749100 -1.043230 2.745870 15.735700 0.000005 -0.000001 79.517900 85.311000 -79.008300 8.984550 -0.406207 -0.000000 1.464090 -1.733270 1.040620 16.377300 -0.000001 -0.000001 2.551060 -1.449670 0.219968 6.456720 -0.000001 -0.000000 -2.415560 -0.086954 -3.289010 12.994200 -0.242716 4.980390 -89.561400 -1.183440 -69.664400 5.348090 -0.000007 -0.000001 -56.496300 47.489200 -6.483550 24.328600 0.000019 0.000005 2.239890 1.685040 -53.080300 22.291600 -0.000001 0.000005 1.739240 5.621980 -12.754900 12.994500 -0.242716 -4.980390 88.307900 3.971640 -66.901800 -5.348130 -0.000001 -0.000004 -56.091600 20.129700 -17.848600 -24.328900 0.000322 -0.000009 2.018390 3.912770 -27.327700 -22.291500 -0.000108 -0.000004 9.609890 5.476100 -5.600070 -2.192480 -6.469440 -0.000000 -168.799000 -17.491900 -2.462700 39.081100 -0.000007 -0.000012 -0.177734 0.456573 21.270100 40.985400 -0.000006 -0.000013 -7.390790 -1.999420 -63.749400 11.754300 -0.000000 0.000003 -0.000114 -0.001153 -16.621700 -2.192510 6.469440 -0.000001 174.687000 22.460400 179.285000 -39.081100 -0.002282 -0.040193 0.027775 -0.068043 19.767500 -40.985400 0.000008 0.000006 -1.259960 0.569342 -64.053300 -11.754300 -0.000006 -0.000006 -0.004300 -0.054524 -18.791200
0.000000 0.000000 0.000000 0.000000 0.000000 -0.000000 -0.923034 92.063800 0.085568 87.772400 -1.230950 2.740500 15.735700 0.000005 -0.000001 79.761300 85.334100 -79.339100 8.984550 -0.406207 -0.000000 1.424240 -1.681260 0.864689 16.377300 -0.000001 -0.000001 2.312050 -1.321080 0.228709 6.456720 -0.000001 -0.000000 -2.842550 0.017406 -3.439760 12.994200 -0.242716 4.980390 -89.390500 -1.650430 -69.726700 5.348090 -0.000007 -0.000001 -53.314000 51.527400 -6.813280 24.328600 0.000019 0.000005 1.345380 0.824843 -58.514900 22.291600 -0.000001 0.000005 2.006050 5.631290 -13.431000 12.994500 -0.242716 -4.980390 88.436100 3.658240 -66.833600 -5.348130 -0.000001 -0.000004 -53.369200 16.554100 -20.048800 -24.328900 0.000322 -0.000009 1.898040 3.560180 -28.102800 -22.291500 -0.000108 -0.000004 9.973550 5.471340 -5.421220 -2.192480 -6.469440 -0.000000 -168.877000 -17.620000 -2.465530 39.081100 -0.000007 -0.000012 -0.176115 0.451810 21.296000 40.985400 -0.000006 -0.000013 -7.355270 -2.118380 -63.770900 11.754300 -0.000000 0.000003 -0.000136 -0.001336 -16.628500 -2.192510 6.469440 -0.000001 174.640000 22.346800 179.234000 -39.081100 -0.002282 -0.040193 0.028526 -0.070195 19.751100 -40.985400 0.000008 0.000006 -1.275430 0.684583 -63.995200 -11.754300 -0.000006 -0.000006 -0.004048 -0.051940 -18.685900
